HIERARCHY
ROOT Bip001_Pelvis
{
  OFFSET 7.937 94.8971 -8.5489
  CHANNELS 6 Xposition Yposition Zposition Zrotation Xrotation Yrotation
  JOINT Bip001_Spine
  {
    OFFSET 1.44608e-005 10.4157 -0.0118244
    CHANNELS 3 Zrotation Xrotation Yrotation
    JOINT Bip001_L_Thigh
    {
      OFFSET 11.2582 -10.4157 0.0118432
      CHANNELS 3 Zrotation Xrotation Yrotation
      JOINT Bip001_L_Calf
      {
        OFFSET -0.720717 -44.8687 0.366937
        CHANNELS 3 Zrotation Xrotation Yrotation
        JOINT Bip001_L_Foot
        {
          OFFSET -0.664439 -41.3745 -3.62995
          CHANNELS 3 Zrotation Xrotation Yrotation
          JOINT Bip001_L_Toe0
          {
            OFFSET 0.0541047 -10.4146 13.4033
            CHANNELS 3 Zrotation Xrotation Yrotation
            End Site
            {
              OFFSET -1.04503e-005 0 7.70137
            }
          }
        }
      }
    }
    JOINT Bip001_R_Thigh
    {
      OFFSET -11.2582 -10.4156 0.0118122
      CHANNELS 3 Zrotation Xrotation Yrotation
      JOINT Bip001_R_Calf
      {
        OFFSET 0.72059 -44.8687 0.36676
        CHANNELS 3 Zrotation Xrotation Yrotation
        JOINT Bip001_R_Foot
        {
          OFFSET 0.664321 -41.3745 -3.62979
          CHANNELS 3 Zrotation Xrotation Yrotation
          JOINT Bip001_R_Toe0
          {
            OFFSET -0.05417 -10.4146 13.4033
            CHANNELS 3 Zrotation Xrotation Yrotation
            End Site
            {
              OFFSET -1.04873e-005 0 7.70137
            }
          }
        }
      }
    }
    JOINT Bip001_Spine1
    {
      OFFSET 1.90638e-005 14.8539 1.10727
      CHANNELS 3 Zrotation Xrotation Yrotation
      JOINT Bip001_Spine2
      {
        OFFSET 2.28934e-005 14.7848 -1.7233
        CHANNELS 3 Zrotation Xrotation Yrotation
        JOINT Bip001_Neck
        {
          OFFSET 2.24514e-005 15.6905 -0.498826
          CHANNELS 3 Zrotation Xrotation Yrotation
          JOINT Bip001_L_Clavicle
          {
            OFFSET 6.17691 -0.000591152 0.00852867
            CHANNELS 3 Zrotation Xrotation Yrotation
            JOINT Bip001_L_UpperArm
            {
              OFFSET 11.773 -0.0611878 0.00197697
              CHANNELS 3 Zrotation Xrotation Yrotation
              JOINT Bip001_L_Forearm
              {
                OFFSET 26.4515 0.0817568 -2.19579
                CHANNELS 3 Zrotation Xrotation Yrotation
                JOINT Bip001_L_Hand
                {
                  OFFSET 32.8677 0.156744 1.67112
                  CHANNELS 3 Zrotation Xrotation Yrotation
                  JOINT Bip001_L_Finger0
                  {
                    OFFSET 6.16268 -2.25226 6.01674
                    CHANNELS 3 Zrotation Xrotation Yrotation
                    End Site
                    {
                      OFFSET 4.30499 -1.46662 0.618148
                    }
                  }
                  JOINT Bip001_L_Finger1
                  {
                    OFFSET 11.2957 -0.718374 -0.201963
                    CHANNELS 3 Zrotation Xrotation Yrotation
                    End Site
                    {
                      OFFSET 6.31952 -0.405163 -0.0802303
                    }
                  }
                }
              }
            }
          }
          JOINT Bip001_R_Clavicle
          {
            OFFSET -6.17691 -0.000574027 0.00851165
            CHANNELS 3 Zrotation Xrotation Yrotation
            JOINT Bip001_R_UpperArm
            {
              OFFSET -11.773 -0.0611516 0.00194365
              CHANNELS 3 Zrotation Xrotation Yrotation
              JOINT Bip001_R_Forearm
              {
                OFFSET -26.4514 0.0822334 -2.19736
                CHANNELS 3 Zrotation Xrotation Yrotation
                JOINT Bip001_R_Hand
                {
                  OFFSET -32.8677 0.156817 1.67144
                  CHANNELS 3 Zrotation Xrotation Yrotation
                  JOINT Bip001_R_Finger0
                  {
                    OFFSET -6.1627 -2.25224 6.0167
                    CHANNELS 3 Zrotation Xrotation Yrotation
                    End Site
                    {
                      OFFSET -4.30499 -1.46662 0.618134
                    }
                  }
                  JOINT Bip001_R_Finger1
                  {
                    OFFSET -11.2958 -0.718344 -0.201994
                    CHANNELS 3 Zrotation Xrotation Yrotation
                    End Site
                    {
                      OFFSET -6.31952 -0.405146 -0.0802475
                    }
                  }
                }
              }
            }
          }
          JOINT Bip001_Head
          {
            OFFSET 1.11782e-005 11.4912 2.09908
            CHANNELS 3 Zrotation Xrotation Yrotation
            End Site
            {
              OFFSET 2.95144e-005 21.2823 -2.83069e-005
            }
          }
        }
      }
    }
  }
}
MOTION
Frames:	8
Frame Time:	0.04
5.67095 95.656 -6.73414 -0.892096 0.621935 3.68431 -0.609594 -0.346974 0.95001 8.08576 -7.23525 7.59002 -0.928872 13.5734 -2.08153 -4.54773 -5.7871 -1.38313 0.717887 -9.81869 0.315593 -5.19264 -3.88217 -1.10641 0.847847 13.1256 1.56353 -0.858416 -8.35818 -12.5293 -0.654795 -11.5721 0.805861 -1.3348 -0.70486 1.88767 -1.33538 -0.704866 1.88748 0.0212444 -2.50469 -10.7406 -29.1508 3.59068 -4.35031 -48.3731 36.9808 6.27769 12.5752 3.16923 -24.4918 -3.45557 -0.109192 -1.08247 1.76556e-031 3.18055e-015 -3.18055e-015 -0 0 1.59028e-015 4.45252 6.63023 30.2841 6.75689 -29.658 51.7463 -20.2178 2.04703 17.7226 -38.0683 2.69072 -6.40223 1.59028e-015 -1.19271e-015 1.6524e-015 1.50327e-032 -7.45443e-016 1.15544e-015 -0.910377 4.11417 -10.1575 
5.65859 95.6477 -6.7224 -0.936236 0.445748 3.59565 -0.533344 -0.29817 0.937467 8.09263 -7.13992 7.967 -0.855256 13.7091 -2.44343 -4.55275 -5.88095 -1.33724 0.721267 -9.81708 0.324583 -5.22045 -3.76435 -1.19113 0.845444 13.1171 1.60781 -0.844785 -8.35636 -12.3895 -0.669357 -11.5719 0.823847 -1.18654 -0.605905 1.86347 -1.18654 -0.605902 1.86346 0.302501 -2.52827 -10.6152 -29.2873 3.62382 -4.46561 -49.4062 36.1763 6.80061 12.1656 3.18743 -24.0196 -3.42001 -0.141613 -0.828618 -3.18055e-015 -3.18055e-015 -0 -0 -3.18056e-015 -0 4.38388 6.54418 29.287 5.75991 -30.6695 51.8715 -19.1518 3.42905 17.9953 -38.2085 3.32532 -6.89584 1.59028e-015 -3.97569e-016 -3.62782e-015 -5.12082e-032 -5.96354e-016 -4.91992e-015 -1.76314 3.95965 -9.74923 
5.72608 95.6585 -6.71488 -0.884642 0.166601 3.37112 -0.355386 -0.220335 0.776263 7.86453 -6.78019 8.86477 -0.699533 13.5896 -2.89173 -4.54052 -5.85851 -1.4509 0.723787 -9.81491 0.329678 -5.48587 -3.59556 -1.28989 0.809398 13.0848 1.90511 -0.823056 -8.29873 -12.2026 -0.643426 -11.5871 0.855122 -0.83158 -0.446219 1.54312 -0.831578 -0.446217 1.54312 -0.299086 -2.30493 -9.83911 -29.5124 3.73339 -4.71697 -49.7988 35.8751 7.53052 12.1833 3.74415 -23.848 -4.12715 -0.190902 -1.04252 3.18055e-015 6.36111e-015 -3.18055e-015 3.18055e-015 6.36111e-015 -1.59028e-015 4.33377 6.04312 28.3785 6.74158 -30.7439 52.6412 -20.0681 3.82445 19.3472 -32.4268 3.20754 -7.84697 1.03451e-032 3.97569e-016 -1.49088e-015 6.36111e-015 0 -2.68359e-015 -2.21846 3.90467 -9.05303 
5.82004 95.6597 -6.78866 -0.880789 0.093953 2.96851 -0.295131 -0.167341 0.655265 7.73082 -6.7169 8.1147 -0.866565 13.5948 -2.18866 -4.47698 -5.93894 -0.930313 0.736604 -9.79648 0.397865 -5.60153 -3.73036 -0.9217 0.82012 13.0987 1.95818 -0.754656 -8.20978 -12.1069 -0.648907 -11.5877 0.872979 -0.713818 -0.338686 1.3018 -0.713878 -0.338686 1.30159 -0.844651 -2.06375 -8.92039 -29.1366 3.94236 -5.26734 -50.1073 36.9436 8.2804 12.4664 4.6596 -23.4784 -5.00759 -0.269667 -1.41422 -1.59028e-015 -3.18055e-015 -0 -4.77083e-015 0 1.59028e-015 5.14356 5.92206 27.8106 8.52059 -30.354 51.5258 -22.0649 2.29939 24.9426 -30.4883 2.41151 -9.1008 -6.36111e-015 1.88845e-015 3.23025e-015 -6.36111e-015 2.38542e-015 3.97569e-016 -1.33604 4.50479 -8.52453 
5.921 95.6527 -6.91936 -0.922664 0.0821166 2.4499 -0.321661 -0.123752 0.709067 7.79291 -6.80181 8.20172 -0.954321 13.7808 -1.90966 -4.38956 -6.038 -0.815203 0.73801 -9.78926 0.40158 -5.59514 -3.97972 -0.731349 0.771086 13.1436 1.9356 -0.584994 -8.1019 -11.8044 -0.689702 -11.5859 0.8908 -0.772076 -0.25219 1.40831 -0.772469 -0.252191 1.40832 -0.106451 -1.8666 -8.48828 -29.402 4.01871 -6.20218 -50.5174 38.1083 8.83915 12.6028 5.28486 -22.79 -5.75426 -0.362645 -1.85222 3.18055e-015 6.36111e-015 -0 4.77083e-015 6.36111e-015 -1.59028e-015 6.31333 6.14495 26.6973 9.77175 -30.4485 51.1457 -26.3088 3.46738 29.8232 -30.9374 3.45073 -9.4381 -3.18055e-015 9.31803e-018 3.9524e-016 -3.18055e-015 5.0628e-016 4.24747e-016 -1.45325 4.95763 -7.86594 
6.04877 95.6367 -7.04374 -0.913958 -0.00985579 2.04476 -0.287123 -0.0515538 0.691056 7.67705 -6.84962 8.37166 -0.908925 13.9621 -1.86781 -4.32981 -6.14323 -0.645475 0.739719 -9.78788 0.437971 -5.74985 -4.18211 -0.872075 0.708449 13.2706 2.09917 -0.341249 -8.08382 -11.4089 -0.792013 -11.573 0.937039 -0.716571 -0.107345 1.3717 -0.717124 -0.107344 1.37164 0.137455 -1.85069 -7.68009 -29.7429 4.33025 -6.78949 -50.7824 39.6005 9.44366 12.8514 4.88004 -22.6133 -5.83304 -0.412002 -1.45566 -0 0 1.59028e-015 -1.59028e-015 -3.18056e-015 -0 8.76294 6.7431 24.9629 12.1499 -30.5705 50.6751 -32.2912 4.71192 37.5465 -32.268 4.09178 -7.75215 4.77083e-015 -2.48481e-016 -1.29831e-015 1.59028e-015 -7.95139e-016 -1.86361e-016 -1.77287 5.94399 -6.90569 
6.17144 95.6276 -7.14822 -0.865902 -0.173686 1.81922 -0.220323 0.0771757 0.528324 7.53729 -6.84246 8.50198 -0.980866 14.0476 -1.60864 -4.21277 -6.16325 -0.625001 0.717872 -9.78864 0.42901 -5.97236 -4.31622 -0.946338 0.674852 13.3692 2.21759 -0.114901 -8.08273 -11.0712 -0.895363 -11.5605 0.982835 -0.597532 0.151672 1.04617 -0.597532 0.151672 1.04617 0.0877238 -1.49745 -6.42048 -29.5927 4.37193 -7.25907 -50.6705 39.397 8.73526 12.6047 4.83382 -22.0573 -5.21832 -0.296142 -1.09212 -3.18055e-015 -3.18055e-015 3.18055e-015 -3.18055e-015 -3.18056e-015 1.59028e-015 11.6803 6.95724 23.2353 17.1529 -32.3934 50.4779 -37.4573 6.79795 48.7041 -31.978 3.97207 -6.53706 1.59028e-015 5.96354e-016 -7.7029e-016 3.18055e-015 1.98785e-016 -9.44227e-016 -2.10631 6.38682 -5.60912 
6.27682 95.6223 -7.25645 -0.873805 -0.303405 1.66308 -0.130513 0.182481 0.388421 7.41814 -6.90176 8.63324 -1.00205 14.1884 -1.55147 -4.12712 -6.19962 -0.502161 0.718241 -9.79022 0.429163 -6.1296 -4.41507 -0.749825 0.687955 13.379 2.10058 0.0327922 -8.01329 -10.8619 -0.939643 -11.5557 1.01243 -0.423883 0.363581 0.767165 -0.423875 0.363578 0.766993 -0.305241 -0.791697 -5.1625 -29.3299 4.20878 -8.05366 -50.54 39.0428 8.11248 12.3845 4.43077 -21.6625 -4.82617 -0.28863 -0.752305 1.59028e-015 -3.18055e-015 -1.59028e-015 0 0 -0 14.7541 6.56782 21.2401 22.9335 -34.0283 48.6767 -39.9565 7.5899 62.1215 -30.5099 4.24698 -4.57574 0 0 -9.93923e-017 1.59028e-015 1.59028e-015 -5.96354e-016 -2.01461 6.81451 -4.52164 
